<?xml version="1.0" encoding="UTF-8"?>
<svg version="1.1" xmlns="http://www.w3.org/2000/svg" width="2000" height="2093">
<path d="M0 0 C1.20597965 -0.00407553 2.4119593 -0.00815105 3.6544838 -0.01235008 C10.0613207 -0.03313371 16.46813681 -0.04745807 22.875 -0.05688477 C28.08378081 -0.06566393 33.2922878 -0.086356 38.50097656 -0.1184082 C69.20108556 -0.30314273 99.42805043 0.11983981 129.8828125 4.23828125 C130.61605743 4.33683851 131.34930237 4.43539577 132.10476685 4.53693962 C177.23281995 10.63632051 221.51420735 21.62127244 261.8828125 43.23828125 C262.53121094 43.58181641 263.17960938 43.92535156 263.84765625 44.27929688 C278.54939794 52.11735994 292.29805336 61.29420182 304.8828125 72.23828125 C305.84574219 73.06714844 306.80867187 73.89601563 307.80078125 74.75 C328.20516132 92.6531125 345.05807577 116.56210871 347.8828125 144.23828125 C351.16556104 201.32626389 335.16809858 256.20840305 318.52160645 310.16760254 C317.89435219 312.20087483 317.26867466 314.23462532 316.64355469 316.26855469 C315.72429572 319.25876933 314.80406885 322.24868153 313.8828125 325.23828125 C309.752012 324.36615552 306.85343632 322.31891363 303.4453125 319.92578125 C255.78079911 287.44694793 198.60608495 271.91111119 141.8828125 265.23828125 C140.94373047 265.12500488 140.00464844 265.01172852 139.03710938 264.89501953 C48.49748589 254.28961952 -53.24949599 268.36874678 -133.2421875 327.17578125 C-134.87362163 328.52218945 -136.49815144 329.87698973 -138.1171875 331.23828125 C-139.15754213 332.09246004 -140.19790741 332.94662585 -141.23828125 333.80078125 C-154.76215086 345.02807106 -167.32168701 357.35554292 -178.1171875 371.23828125 C-179.00562744 372.30629589 -179.89779129 373.37121994 -180.79296875 374.43359375 C-235.89779684 440.42206612 -260.1742921 530.07238637 -305.8046875 914.23828125 C-305.83543617 915.02103172 -305.86618484 915.8037822 -305.8978653 916.61025238 C-305.94301395 917.76220974 -305.94301395 917.76220974 -305.98907471 918.93743896 C-306.02825453 919.9365008 -306.02825453 919.9365008 -306.06822586 920.9557457 C-307.49004498 958.09627922 -308.2790684 995.224599 -308.28444457 1032.39252067 C-308.28517459 1035.25951868 -308.28734399 1038.12651239 -308.28994179 1040.99350929 C-308.29911522 1051.16991082 -308.30328879 1061.34629956 -308.30249023 1071.52270508 C-308.30196336 1079.7108764 -308.30889305 1087.89899922 -308.32299805 1096.0871582 C-308.39668357 1139.88733095 -308.23006837 1183.6635584 -307.19140625 1227.453125 C-307.17046079 1228.34204555 -307.14951534 1229.23096611 -307.12793517 1230.14682364 C-305.08251016 1316.43675222 -300.89820435 1402.82179942 -258.1171875 1661.23828125 C-257.80458984 1662.25841309 -257.49199219 1663.27854492 -257.16992188 1664.32958984 C-245.05737566 1703.43204883 -227.35208852 1742.95182429 -199.0546875 1773.125 C-197.1171875 1775.23828125 -197.1171875 1775.23828125 -195.08203125 1777.80859375 C-192.14152273 1781.44476929 -188.71576691 1784.26930883 -185.1171875 1787.23828125 C-184.20066406 1788.00398438 -183.28414063 1788.7696875 -182.33984375 1789.55859375 C-154.73844446 1811.76501588 -118.67841958 1822.80989047 -84.1171875 1828.23828125 C-83.07449707 1828.40602051 -83.07449707 1828.40602051 -82.01074219 1828.57714844 C-28.54422009 1836.87322651 33.37219341 1831.04728346 78.23095703 1798.47021484 C82.58809043 1795.22071808 86.76461438 1791.78322619 90.8828125 1788.23828125 C91.65753906 1787.58601563 92.43226563 1786.93375 93.23046875 1786.26171875 C99.21318504 1781.55176503 99.21318504 1781.55176503 102.25945668 1774.90338139 C102.26023658 1774.03300951 102.26101648 1773.16263763 102.26182002 1772.26589084 C102.27408296 1770.75161927 102.27408296 1770.75161927 102.28659365 1769.20675635 C102.28031695 1768.09743129 102.27404025 1766.98810623 102.26757336 1765.84516525 C102.27272326 1764.66206504 102.27787317 1763.47896483 102.28317913 1762.2600131 C102.29449059 1758.96038548 102.29229784 1755.66125573 102.28455029 1752.3616499 C102.27942084 1748.77800848 102.2916307 1745.19442042 102.30168182 1741.61079526 C102.31690463 1735.32498669 102.32096646 1729.03924687 102.31780434 1722.75342178 C102.3131525 1713.40659196 102.32561227 1704.05984028 102.34163407 1694.71302583 C102.36809552 1678.99155376 102.3805964 1663.27009931 102.38519859 1647.54860687 C102.38980213 1631.97763668 102.40057522 1616.40669099 102.41962624 1600.83573151 C102.42139643 1599.38463887 102.42139643 1599.38463887 102.42320238 1597.90423122 C102.42922762 1592.9915156 102.43536346 1588.07880011 102.44154189 1583.16608468 C102.48512851 1548.35031293 102.51482457 1513.53454177 102.53637695 1478.71875 C102.55734925 1444.89126709 102.58459777 1411.06379877 102.62036133 1377.23632812 C102.62146081 1376.1940032 102.62256028 1375.15167828 102.62369308 1374.07776776 C102.63474121 1363.61051296 102.64591714 1353.14325831 102.6571867 1342.67600375 C102.68014212 1321.35213884 102.70224448 1300.02827308 102.72383118 1278.70440674 C102.7248248 1277.72392463 102.72581841 1276.74344252 102.72684214 1275.73324883 C102.75725881 1245.67444317 102.78405906 1215.6156358 102.80729675 1185.55682373 C102.80828867 1184.27647451 102.80828867 1184.27647451 102.80930062 1182.97025964 C102.8360336 1148.39293512 102.85894224 1113.81560784 102.8828125 1079.23828125 C41.5028125 1079.23828125 -19.8771875 1079.23828125 -83.1171875 1079.23828125 C-83.2409375 1034.10046875 -83.2409375 1034.10046875 -83.3671875 988.05078125 C-83.40360352 978.56303955 -83.44001953 969.07529785 -83.47753906 959.30004883 C-83.49560547 947.67907715 -83.49560547 947.67907715 -83.4989624 942.23197937 C-83.50267623 938.44245459 -83.51761482 934.65315589 -83.53948975 930.86369324 C-83.56708832 926.01791807 -83.57512242 921.17246788 -83.5694766 916.32662141 C-83.57065579 914.55576198 -83.57849148 912.78489026 -83.59404802 911.01409876 C-83.71899698 896.08820489 -81.9626198 882.6556165 -71.3046875 871.30859375 C-60.17526758 860.85232423 -45.10875869 857.11044031 -30.14946079 857.11523342 C-29.14711426 857.11350265 -29.14711426 857.11350265 -28.12451831 857.11173692 C-25.89349799 857.10909769 -23.66255038 857.1135701 -21.43153381 857.11802673 C-19.81269531 857.11759048 -18.19385688 857.11671458 -16.57501882 857.11543757 C-12.13280986 857.11320324 -7.69062505 857.11719939 -3.24841917 857.12221563 C1.54427694 857.12653516 6.33697169 857.12507263 11.12966919 857.12431335 C19.43129232 857.12378907 27.73290758 857.12692588 36.03452873 857.13255119 C48.03727134 857.14067916 60.04001014 857.14328275 72.04275519 857.14453918 C91.51654273 857.14672766 110.99032607 857.15338222 130.46411133 857.1628418 C149.38077778 857.17202119 168.2974431 857.17909945 187.21411133 857.18334961 C188.38018753 857.18361233 189.54626374 857.18387506 190.74767559 857.18414574 C196.597553 857.18545078 202.44743042 857.18671449 208.29730785 857.18795764 C256.82581229 857.1983239 305.35431219 857.21593668 353.8828125 857.23828125 C353.99189808 946.64735283 353.95725171 1036.05635994 353.0659229 1407.43385811 C352.9787072 1440.211351 352.89464959 1472.98885085 352.81274414 1505.76635742 C352.71595925 1544.49521888 352.6170155 1583.22407396 352.51496691 1621.95292193 C352.5039911 1626.12064364 352.49302096 1630.28836537 352.48205376 1634.45608711 C352.47935488 1635.48107849 352.476656 1636.50606987 352.47387534 1637.5621216 C352.43682729 1651.64546256 352.40100101 1665.72880609 352.36618596 1679.81215274 C352.34705732 1687.53358511 352.32762599 1695.25501673 352.30820436 1702.97644837 C352.30105551 1705.82852906 352.29397952 1708.68060994 352.28691439 1711.53269085 C352.236854 1731.66180074 352.17853578 1751.79082529 352.09578037 1771.91982937 C352.08862081 1773.6827973 352.08147555 1775.44576529 352.07434468 1777.20873334 C352.07082498 1778.07841149 352.06730529 1778.94808964 352.06367893 1779.84412168 C352.05660035 1781.59512744 352.04952936 1783.34613324 352.04246602 1785.09713906 C352.02496014 1789.43493159 352.00727251 1793.77272318 351.98919674 1798.11051337 C351.9028979 1819.0689083 351.8778353 1840.02599468 351.93800603 1860.98449798 C351.9771451 1874.71357756 351.98604884 1888.44244816 351.97200931 1902.17157631 C351.96464944 1910.9331539 351.98723274 1919.69358032 352.05082186 1928.45493483 C352.09076637 1934.30949307 352.09505136 1940.16337306 352.07058336 1946.01801452 C352.05777033 1949.36489671 352.06676794 1952.70793269 352.10901718 1956.05482955 C352.15241354 1959.6689731 352.13456962 1963.27782838 352.10137081 1966.8919611 C352.12881239 1967.93488319 352.15625396 1968.97780529 352.1845271 1970.05233109 C352.08483895 1974.56892535 351.83293432 1977.19155133 348.72966105 1980.61036449 C346.19468498 1982.66883966 343.63415252 1984.48243909 340.8828125 1986.23828125 C340.0952706 1986.77406468 339.30772869 1987.30984811 338.49632188 1987.8618674 C336.38526417 1989.29246783 334.23872035 1990.64633741 332.0703125 1991.98828125 C331.26045898 1992.49359375 330.45060547 1992.99890625 329.61621094 1993.51953125 C313.75157631 2003.33847018 297.41527387 2012.25326627 280.80664062 2020.74267578 C278.87344945 2021.73154762 276.9424133 2022.72464496 275.01367188 2023.72216797 C229.22339365 2047.38984245 180.91193337 2064.04912462 130.8828125 2076.23828125 C129.82658691 2076.49706055 128.77036133 2076.75583984 127.68212891 2077.02246094 C97.71932151 2084.26863873 67.33351555 2088.54975771 36.67578125 2091.4765625 C36.02278549 2091.53982224 35.36978973 2091.60308197 34.69700623 2091.66825867 C32.42683331 2091.87720145 30.15563964 2092.06037694 27.8828125 2092.23828125 C26.83133026 2092.32449234 25.77984802 2092.41070343 24.69650269 2092.49952698 C11.68023035 2093.44897594 -1.33729329 2093.44023524 -14.3828125 2093.4765625 C-15.63712822 2093.48063803 -16.89144394 2093.48471355 -18.18376923 2093.48891258 C-24.16602488 2093.50755717 -30.14825661 2093.52213149 -36.13053346 2093.53052455 C-42.22288386 2093.53922653 -48.31497709 2093.55830595 -54.40722656 2093.5949707 C-139.96105191 2094.09070201 -227.51647176 2084.65849408 -403.25390625 1987.9140625 C-405.19906931 1986.0962771 -407.1509201 1984.30285014 -409.13671875 1982.53125 C-416.25715991 1976.16099002 -422.81446066 1969.41584141 -429.1171875 1962.23828125 C-429.60719238 1961.68237305 -430.09719727 1961.12646484 -430.60205078 1960.55371094 C-467.05556093 1919.04990736 -493.87028227 1870.42956729 -514.1171875 1819.23828125 C-514.58721191 1818.05137695 -515.05723633 1816.86447266 -515.54150391 1815.64160156 C-550.33473556 1726.65288208 -565.39070325 1629.999892 -593.2421875 1279.61328125 C-593.28079895 1278.45256104 -593.3194104 1277.29184082 -593.35919189 1276.09594727 C-594.59248799 1238.45588494 -595.27936669 1200.82359451 -595.28444457 1163.16346121 C-595.28517366 1160.09469149 -595.28734128 1157.02592582 -595.28994179 1153.95715714 C-595.29910476 1143.09431946 -595.30328915 1132.23149376 -595.30249023 1121.36865234 C-595.30196061 1112.58543047 -595.30896184 1103.80225345 -595.32299805 1095.01904297 C-595.40770631 1040.72601294 -595.06017777 986.49991404 -593.1171875 932.23828125 C-593.0771825 931.11278618 -593.03717751 929.98729111 -592.99596024 928.82769012 C-592.55448636 916.52597806 -592.03493824 904.22946467 -591.42554474 891.93495178 C-591.29882545 889.3696081 -591.17481679 886.80414283 -591.0512085 884.23864746 C-586.73575067 795.04178602 -579.48834579 705.866149 -453.49511719 244.66308594 C-452.16654917 242.32514519 -450.86260213 239.97495228 -449.5625 237.62109375 C-434.4195034 210.50860892 -416.00829843 185.03834184 -396.1171875 161.23828125 C-395.60414063 160.62082031 -395.09109375 160.00335938 -394.5625 159.3671875 C-388.49678184 152.08524667 -382.22390863 145.19006304 -375.4453125 138.56640625 C-373.64005004 136.76114379 -372.00704571 134.98626831 -370.4296875 132.98828125 C-367.89643798 129.9757683 -365.13506865 127.56064473 -362.14453125 125.015625 C-360.26683618 123.36947614 -358.53591052 121.66093009 -356.8046875 119.86328125 C-353.13142586 116.13184578 -349.12536377 112.88653468 -345.046875 109.609375 C-342.1725158 107.28306029 -339.36570154 104.89049131 -336.5546875 102.48828125 C-317.6868775 86.78131571 -296.77773335 73.71530349 -275.1171875 62.23828125 C-274.29976074 61.80161133 -273.48233398 61.36494141 -272.64013672 60.91503906 C-201.83734884 23.37158712 -118.22335421 8.02528191 -39.1171875 1.23828125 C-38.20960693 1.15207016 -37.30202637 1.06585907 -36.36694336 0.97703552 C-24.26289984 -0.05005085 -12.13919434 0.03506807 0 0 Z " fill="#FFFFFF" transform="translate(597.1171875,-0.23828125)"/>
<path d="M0 0 C1.30340836 -0.0049649 2.60681671 -0.00992981 3.94972229 -0.01504517 C7.49112473 -0.02801521 11.03250832 -0.03458778 14.57393074 -0.03905582 C16.8133022 -0.0420217 19.05266894 -0.04613313 21.29203796 -0.05056 C28.37421148 -0.06421652 35.45637369 -0.07388293 42.53855944 -0.07776189 C49.7772304 -0.0817531 57.01576826 -0.09385402 64.25439453 -0.12011719 C100.67303795 -0.24937755 136.88737093 -0.08088304 173.19726562 3.16113281 C174.06231531 3.23728947 174.927365 3.31344612 175.81862831 3.39191055 C247.7111498 9.73192938 334.39227176 19.83449941 390.19726562 70.16113281 C391.49857422 71.30195313 391.49857422 71.30195313 392.82617188 72.46582031 C395.31299337 74.66726885 397.76026735 76.90480855 400.19726562 79.16113281 C400.80054688 79.69867188 401.40382813 80.23621094 402.02539062 80.79003906 C420.14442965 97.68138619 429.91581071 122.45551918 431.41992188 146.75878906 C432.77291283 203.64323479 406.89236808 257.27620721 370.19726562 299.16113281 C369.21114512 300.17482228 368.21894258 301.18329018 367.19726562 302.16113281 C363.3640996 300.77039929 360.22165247 298.96350278 356.82226562 296.72363281 C286.70478937 252.55085579 191.68807995 237.60664615 110.19726562 236.16113281 C108.96927246 236.13921875 107.7412793 236.11730469 106.47607422 236.09472656 C24.026593 234.87310195 -65.67527737 247.01069684 -128.64257812 305.06347656 C-131.933164 308.25885561 -134.9166695 311.59816573 -137.80273438 315.16113281 C-138.56199219 316.0828125 -139.32125 317.00449219 -140.10351562 317.95410156 C-164.0702513 347.64092334 -173.27365518 382.75484702 -173.11523438 420.41113281 C-173.11307922 421.33421234 -173.11092407 422.25729187 -173.10870361 423.20834351 C-172.98446586 456.48862095 -167.85390706 488.69516756 -156.80273438 520.16113281 C-156.35055156 521.50476175 -155.89870401 522.84850358 -155.44726562 524.19238281 C-141.64759192 564.07686801 -117.30315814 600.43899656 -93.80273438 635.16113281 C-92.62166802 636.91628949 -91.44067215 638.6714936 -90.25976562 640.42675781 C-73.60097139 665.08446702 -55.51436187 688.83243976 -36.22607422 711.48779297 C-33.91269427 714.20750243 -31.60808045 716.93461379 -29.30273438 719.66113281 C-28.38611151 720.7445032 -27.4694448 721.8278365 -26.55273438 722.91113281 C-6.38606771 746.74446615 13.78059896 770.57779948 33.94726562 794.41113281 C34.40117676 794.94754395 34.85508789 795.48395508 35.32275391 796.03662109 C36.23790975 797.11822802 37.15294913 798.19993351 38.06787109 799.28173828 C40.3817004 802.0173122 42.69763034 804.75105756 45.01757812 807.48144531 C49.24806186 812.46427628 53.45580243 817.45815996 57.57226562 822.53613281 C61.73947687 827.65926348 66.06039019 832.6370821 70.39990234 837.61376953 C74.30135617 842.09844799 78.08204469 846.66585989 81.82226562 851.28613281 C84.72222438 854.7966092 87.704847 858.22946008 90.69726562 861.66113281 C95.17261079 866.79340938 99.53733689 871.99298555 103.82226562 877.28613281 C106.72222438 880.7966092 109.704847 884.22946008 112.69726562 887.66113281 C117.17261079 892.79340938 121.53733689 897.99298555 125.82226562 903.28613281 C128.72222533 906.79661035 131.70487757 910.22943216 134.69726562 913.66113281 C139.1947454 918.81964593 143.58722015 924.04270375 147.89648438 929.36035156 C151.07761767 933.23280075 154.34480117 937.02842064 157.61328125 940.82714844 C162.38700794 946.37532001 167.11657569 951.95987635 171.83837891 957.55224609 C174.12272748 960.25685571 176.4101607 962.95885409 178.69726562 965.66113281 C179.61394688 966.7444538 180.53061355 967.82778713 181.44726562 968.91113281 C181.90101563 969.44738281 182.35476563 969.98363281 182.82226562 970.53613281 C198.86393229 989.49446615 214.90559896 1008.45279948 230.94726562 1027.41113281 C231.40117676 1027.94754395 231.85508789 1028.48395508 232.32275391 1029.03662109 C233.23790975 1030.11822802 234.15294913 1031.19993351 235.06787109 1032.28173828 C237.3817004 1035.0173122 239.69763034 1037.75105756 242.01757812 1040.48144531 C247.8198656 1047.31460116 253.54183686 1054.20550097 259.19726562 1061.16113281 C260.19431267 1062.37626283 261.19173169 1063.59108771 262.18945312 1064.80566406 C269.55952035 1073.79846756 276.69095016 1082.94848416 283.71435547 1092.21386719 C285.05951906 1093.98025257 286.41534908 1095.7373592 287.77929688 1097.48925781 C294.25737816 1105.81971452 300.45799568 1114.33242483 306.59326172 1122.91748047 C307.61242254 1124.34306464 308.63337681 1125.76736968 309.65673828 1127.18994141 C336.58841973 1164.63200428 360.52961131 1203.93248786 381.19726562 1245.16113281 C381.64295898 1246.04849121 382.08865234 1246.93584961 382.54785156 1247.85009766 C414.0609681 1311.09357444 430.46809298 1381.73804884 438.44726562 1451.59863281 C438.59848877 1452.90928711 438.74971191 1454.21994141 438.90551758 1455.5703125 C441.85255047 1482.32240649 442.57526044 1509.05351536 442.51532364 1535.938797 C442.50967121 1538.51669375 442.50685829 1541.09458389 442.50424194 1543.67248535 C442.46769292 1568.46116207 442.0962824 1593.11327372 439.45050049 1617.7835083 C439.18369272 1620.28856897 438.92968846 1622.79472256 438.67724609 1625.30126953 C435.00578412 1661.36453776 428.82944084 1696.95365462 420.19726562 1732.16113281 C419.90271484 1733.36398926 419.60816406 1734.5668457 419.3046875 1735.80615234 C401.03778035 1809.33735798 371.19623724 1879.74510269 322.19726562 1938.16113281 C321.35494385 1939.17312744 320.51262207 1940.18512207 319.64477539 1941.2277832 C312.63538234 1949.57670504 305.23920205 1957.43257912 297.50610352 1965.11303711 C295.62538034 1966.98296422 293.75569744 1968.86345919 291.88671875 1970.74511719 C284.96008271 1977.67932395 277.89164602 1984.08005101 270.19726562 1990.16113281 C269.09509387 1991.0955072 267.99878026 1992.0369005 266.91210938 1992.98925781 C258.10875571 2000.66588126 248.7771371 2007.48792272 239.19726562 2014.16113281 C238.4634668 2014.67321289 237.72966797 2015.18529297 236.97363281 2015.71289062 C174.13057996 2059.27996472 99.57055938 2080.02167681 24.38476562 2088.97363281 C23.55104431 2089.07309204 22.717323 2089.17255127 21.8583374 2089.27502441 C-1.92961383 2092.0711096 -25.51625224 2093.47668318 -49.47070312 2093.46191406 C-51.4830112 2093.46482684 -53.49531934 2093.46774794 -55.50762635 2093.47132081 C-61.81654453 2093.4822928 -68.12540315 2093.48292694 -74.43432617 2093.47680664 C-80.11506016 2093.47146681 -85.79561366 2093.47847201 -91.47631836 2093.49731445 C-122.6900704 2093.59838862 -153.73137947 2093.5239598 -184.80273438 2090.16113281 C-186.83760515 2089.95458907 -188.87251327 2089.74841279 -190.9074707 2089.54272461 C-195.65292355 2089.04519859 -200.38441641 2088.4688724 -205.11523438 2087.84863281 C-205.92484619 2087.7447525 -206.73445801 2087.64087219 -207.56860352 2087.53384399 C-255.02421071 2081.41550119 -302.42611955 2070.90316425 -345.80273438 2050.16113281 C-346.97787598 2049.6083667 -346.97787598 2049.6083667 -348.17675781 2049.04443359 C-368.26297763 2039.47774398 -387.6802482 2026.33883635 -404.80273438 2012.16113281 C-405.34043457 2011.7220459 -405.87813477 2011.28295898 -406.43212891 2010.83056641 C-428.95830832 1992.37561465 -448.83031419 1971.01722445 -458.80273438 1943.16113281 C-459.21652344 1942.00742188 -459.6303125 1940.85371094 -460.05664062 1939.66503906 C-471.52564073 1900.62248471 -458.17253874 1852.56180507 -446.80273438 1815.16113281 C-446.55555664 1814.34112793 -446.30837891 1813.52112305 -446.05371094 1812.67626953 C-440.48673424 1794.44422992 -432.68995329 1777.00356305 -423.80273438 1760.16113281 C-423.18809326 1758.98768311 -423.18809326 1758.98768311 -422.56103516 1757.79052734 C-416.35957384 1746.01533883 -409.55378709 1734.97432981 -401.80273438 1724.16113281 C-401.14273437 1723.17113281 -400.48273438 1722.18113281 -399.80273438 1721.16113281 C-396.17344814 1722.42919668 -393.85216387 1723.79408129 -391.11523438 1726.47363281 C-372.32059393 1743.65286614 -349.21383508 1756.39807272 -326.80273438 1768.16113281 C-325.92810547 1768.62374512 -325.05347656 1769.08635742 -324.15234375 1769.56298828 C-291.10925732 1786.94207239 -255.31652454 1800.25766206 -218.80273438 1808.16113281 C-217.8035498 1808.37962891 -216.80436523 1808.598125 -215.77490234 1808.82324219 C-131.27524474 1826.97117684 -23.25876999 1829.92605797 52.19726562 1782.16113281 C79.05922117 1764.59052223 99.63248588 1741.17216757 115.19726562 1713.16113281 C115.7918457 1712.11119141 115.7918457 1712.11119141 116.3984375 1711.04003906 C133.44527064 1680.77592656 143.08307745 1647.0878649 148.44726562 1612.91113281 C148.59824707 1611.95650146 148.74922852 1611.00187012 148.90478516 1610.01831055 C151.83840651 1590.13616312 152.57047987 1570.3609252 152.50976562 1550.28613281 C152.50794281 1549.03311371 152.50612 1547.7800946 152.50424194 1546.48910522 C152.45708085 1527.20390647 151.92154415 1508.27360784 149.19726562 1489.16113281 C148.93985596 1487.31672607 148.93985596 1487.31672607 148.67724609 1485.43505859 C139.69153069 1422.92049703 117.23454958 1365.81319751 84.19726562 1312.16113281 C83.6373291 1311.24944336 83.07739258 1310.33775391 82.50048828 1309.3984375 C75.73197384 1298.4205655 68.62211938 1287.70503946 61.19726562 1277.16113281 C60.79330566 1276.58621094 60.3893457 1276.01128906 59.97314453 1275.41894531 C44.20337582 1253.02522876 27.55903143 1231.3397734 10.19726562 1210.16113281 C9.37355469 1209.15308594 8.54984375 1208.14503906 7.70117188 1207.10644531 C5.53526812 1204.45631004 3.36636609 1201.80865169 1.19726562 1199.16113281 C0.51792969 1198.3296875 -0.16140625 1197.49824219 -0.86132812 1196.64160156 C-6.1075597 1190.2209842 -11.37634398 1183.81919324 -16.64916992 1177.42041016 C-19.87387984 1173.5062135 -23.09389804 1169.58836535 -26.30273438 1165.66113281 C-32.44695768 1158.1426932 -38.62781808 1150.65436282 -44.80273438 1143.16113281 C-51.67917609 1134.81660522 -58.55496361 1126.47183733 -65.39648438 1118.09863281 C-68.52449591 1114.28002133 -71.66358354 1110.47058858 -74.80273438 1106.66113281 C-78.64337453 1102.00039825 -82.48152992 1097.33783081 -86.30273438 1092.66113281 C-92.44695768 1085.1426932 -98.62781808 1077.65436282 -104.80273438 1070.16113281 C-111.6856449 1061.80875536 -118.5673193 1053.4556703 -125.41601562 1045.07519531 C-130.86302466 1038.42467365 -136.33577757 1031.79525752 -141.80273438 1025.16113281 C-148.67917609 1016.81660522 -155.55496361 1008.47183733 -162.39648438 1000.09863281 C-165.52449591 996.28002133 -168.66358354 992.47058858 -171.80273438 988.66113281 C-175.64337453 984.00039825 -179.48152992 979.33783081 -183.30273438 974.66113281 C-189.44695768 967.1426932 -195.62781808 959.65436282 -201.80273438 952.16113281 C-208.6856449 943.80875536 -215.5673193 935.4556703 -222.41601562 927.07519531 C-227.86302466 920.42467365 -233.33577757 913.79525752 -238.80273438 907.16113281 C-245.67917609 898.81660522 -252.55496361 890.47183733 -259.39648438 882.09863281 C-262.52449632 878.28002083 -265.66371373 874.4706964 -268.80273438 870.66113281 C-270.60051182 868.47810032 -272.39817335 866.29497243 -274.19580078 864.11181641 C-275.56769567 862.44645023 -276.94093564 860.78219225 -278.31445312 859.11816406 C-293.18742681 841.04095907 -307.31250579 822.35903375 -321.11914062 803.45947266 C-322.67210996 801.33945332 -324.23587147 799.22792211 -325.80273438 797.11816406 C-336.63553873 782.43401174 -346.60241522 767.14347649 -356.64599609 751.91479492 C-357.65426617 750.38621663 -358.66392729 748.85855606 -359.67382812 747.33105469 C-408.12503981 673.92928137 -444.06022351 592.54980235 -463.00585938 443.70800781 C-463.01291901 442.46153976 -463.01997864 441.21507172 -463.0272522 439.93083191 C-463.0447855 435.92422342 -463.05194481 431.91777167 -463.05273438 427.91113281 C-463.05302895 427.22763386 -463.05332352 426.5441349 -463.05362701 425.83992386 C-463.05509156 404.8042885 -462.77107593 384.02753383 -459.80273438 363.16113281 C-459.70563171 362.4642334 -459.60852905 361.76733398 -459.50848389 361.04931641 C-453.64485633 319.1260653 -442.91852276 278.54074435 -424.80273438 240.16113281 C-424.36993164 239.24187012 -423.93712891 238.32260742 -423.49121094 237.37548828 C-408.31685013 205.45834296 -388.44602271 174.7647972 -364.28710938 148.85644531 C-362.36938032 146.77589021 -360.51909242 144.67075725 -358.67773438 142.52441406 C-354.47496514 137.70605342 -349.9997467 133.17206786 -345.47949219 128.65258789 C-344.0635349 127.23444997 -342.65575148 125.80816617 -341.24804688 124.38183594 C-335.82051961 118.94296983 -330.23817482 113.90421822 -324.23632812 109.10668945 C-322.2780324 107.54111374 -320.36666933 105.95052403 -318.48242188 104.29785156 C-310.03374882 96.91997133 -301.08651444 90.44602139 -291.80273438 84.16113281 C-291.12758789 83.7023877 -290.45244141 83.24364258 -289.75683594 82.77099609 C-260.26437976 62.86322973 -228.18566541 47.32658782 -194.80273438 35.16113281 C-193.73474609 34.77119141 -192.66675781 34.38125 -191.56640625 33.97949219 C-138.9569905 15.04526347 -83.36307205 5.75921169 -27.80273438 1.16113281 C-26.72930031 1.07218372 -25.65586624 0.98323463 -24.54990387 0.89159012 C-16.35397276 0.25773543 -8.21858165 0.00768257 0 0 Z " fill="#FFFFFF" transform="translate(1555.802734375,-0.1611328125)"/>
</svg>
