<?xml version="1.0" encoding="UTF-8"?>
<svg version="1.1" xmlns="http://www.w3.org/2000/svg" width="64" height="64">
<path d="M0 0 C5.11955591 0.4950013 8.67186565 1.58924729 13.10546875 4.17578125 C14.2452417 4.83352539 15.38501465 5.49126953 16.55932617 6.16894531 C17.76906923 6.88286778 18.97845383 7.59739797 20.1875 8.3125 C21.43228294 9.03944915 22.6774854 9.76568037 23.9230957 10.49121094 C26.4267274 11.95238834 28.92584237 13.42090193 31.421875 14.89501953 C34.68333508 16.81901407 37.96429976 18.70750022 41.25 20.58984375 C43.06312499 21.64215305 44.87566757 22.69546676 46.6875 23.75 C47.52369873 24.22606689 48.35989746 24.70213379 49.22143555 25.19262695 C49.977229 25.63952881 50.73302246 26.08643066 51.51171875 26.546875 C52.16615967 26.92682617 52.82060059 27.30677734 53.49487305 27.69824219 C55 29 55 29 55.96801758 30.90332031 C56 33 56 33 54.39624023 35.046875 C51.91186664 37.07183564 49.44654336 38.66669996 46.66015625 40.25 C45.07992676 41.15480103 45.07992676 41.15480103 43.46777344 42.07788086 C42.3440332 42.71218018 41.22029297 43.34647949 40.0625 44 C38.89720593 44.66174189 37.73216939 45.32393749 36.56738281 45.98657227 C34.78956 46.99781304 33.01144036 48.00848896 31.23178101 49.01649475 C27.40412919 51.18745721 23.60683875 53.40396773 19.82421875 55.65234375 C18.8798999 56.20857422 17.93558105 56.76480469 16.96264648 57.33789062 C15.19475395 58.38039192 13.4322246 59.43205904 11.67602539 60.49414062 C7.29050227 63.05624914 4.24959544 64.68583424 -1 64 C-2.04338091 60.86985728 -2.13292405 58.66746793 -2.14526367 55.3828125 C-2.15164352 54.23151855 -2.15802338 53.08022461 -2.16459656 51.89404297 C-2.16570938 50.65025879 -2.1668222 49.40647461 -2.16796875 48.125 C-2.17129715 46.84898926 -2.17462555 45.57297852 -2.17805481 44.25830078 C-2.18312136 41.55823278 -2.18589531 38.85826543 -2.18530273 36.15820312 C-2.185201 32.6979645 -2.19886768 29.23793055 -2.21607494 25.77774048 C-2.22986169 22.47683456 -2.22928337 19.17593082 -2.23046875 15.875 C-2.23765427 14.63121582 -2.24483978 13.38743164 -2.25224304 12.10595703 C-2.24916641 10.95466309 -2.24608978 9.80336914 -2.24291992 8.6171875 C-2.24434494 7.60253418 -2.24576996 6.58788086 -2.24723816 5.54248047 C-2 3 -2 3 0 0 Z " fill="#FFFFFF" transform="translate(5,0)"/>
</svg>
