<?xml version="1.0" encoding="UTF-8"?>
<svg version="1.1" xmlns="http://www.w3.org/2000/svg" width="30" height="30">
<path d="M0 0 C13.6640625 -0.7734375 13.6640625 -0.7734375 17.4375 2.375 C21.14358592 6.56712998 20.66842157 11.05965535 20.375 16.375 C20.25125 19.55125 20.1275 22.7275 20 26 C13.4 26 6.8 26 0 26 C0 17.42 0 8.84 0 0 Z M12 3 C12.33 4.65 12.66 6.3 13 8 C14.32 7.67 15.64 7.34 17 7 C15.35 5.68 13.7 4.36 12 3 Z M5 13 C5 13.66 5 14.32 5 15 C8.3 15 11.6 15 15 15 C15 14.34 15 13.68 15 13 C11.7 13 8.4 13 5 13 Z M5 17 C5 17.66 5 18.32 5 19 C7.64 19 10.28 19 13 19 C13 18.34 13 17.68 13 17 C10.36 17 7.72 17 5 17 Z " fill="#FFFFFF" transform="translate(5,2)"/>
</svg>
